#!OML:ASF E:/inclinewalkrobotboard/Project1/Captureday1/Session1/subject1.ASF
:FULLY-SPECIFIED
:DEGREES
201
root 0 0 0 -3.3697019359124916 1.3227091072657053 2.3127235240575565
lowerback 11.772116648374936 -0.6451961703882154 -3.087678961293195
upperback 1.2859884473412109 -1.0846219873678284 1.032102673836667
thorax -5.228862377864219 -0.4437255790226302 2.902377596341296
lowerneck -17.50802954392103 -2.9395355407363537 -2.3705678594774997
upperneck 17.765823991765753 -3.302371824582317 -0.2669271928045367
head 8.294280828387924 -1.7534514345901517 -0.06325448522504673
rclavicle 3.3513182460020696E-15 1.0822321793642278E-15
rhumerus -49.55713871340098 -18.513650397818683 -72.77181640559334
rradius 24.343840247411617
rwrist -1.6030969017678842
rhand -21.930449913517855 28.221734491405705
rfingers 7.125020000000058
rthumb 4.455962584769928 -2.0592523484574468
lclavicle -1.1074682427497748E-15 -8.096450938593379E-15
lhumerus -37.10568837956235 -0.6168264345746186 84.22868387313817
lradius 28.394337611860358
lwrist 7.358573802923612
lhand -32.09158487397729 23.49513573255703
lfingers 7.125020000000041
lthumb -5.266297400049773 54.25401251103663
rfemur -27.692644009010152 26.13762335136687 40.06603270879239
rtibia 24.405679077424644
rfoot -8.981513443981086 -12.934329963334847
rtoes -4.559003132664017
lfemur 0.7312164659706397 -6.052887705946878 -22.804497823823446
ltibia 21.261538859575737
lfoot -9.790106854215427 -1.4099008158717403
ltoes -7.477528358999622
202
root 0 0 0 -3.3238746613039183 3.116586199634021 2.638776364545812
lowerback 11.705547356334908 -0.8791544352784977 -3.600617976455177
upperback 1.2481054499732593 -1.428523446015402 1.0438593160784566
thorax -5.199249373395331 -0.6086378852612964 3.2458329518879614
lowerneck -17.633806102258283 -2.8850002256567917 -2.472228940175133
upperneck 17.64071435620628 -3.1677935114876914 -0.3333556217453779
head 8.287211912984446 -1.7013204502425112 -0.06602257509266751
rclavicle 3.1761459321592418E-15 1.218888304276869E-15
rhumerus -50.089091581114246 -18.707008836810793 -72.68017116203472
rradius 23.966128911222388
rwrist -1.400280016303654
rhand -21.765922141261157 28.049220209863186
rfingers 7.125020000000056
rthumb 4.609736841825281 -2.222309765337764
lclavicle -4.1675237084426604E-16 -8.18147219824365E-15
lhumerus -35.90120596939222 -1.246203228995049 84.08993838979416
lradius 28.801069579872042
lwrist 8.308093157106036
lhand -31.839180671512988 24.108056951830914
lfingers 7.125020000000041
lthumb -5.029614658056833 54.827511012011605
rfemur -28.690700018021076 27.907452329145997 41.20044062928568
rtibia 23.783684005636463
rfoot -8.442739129795156 -13.488078744995079
rtoes -4.034616992134726
lfemur 2.308289049024218 -5.62569920685395 -23.201597643348084
ltibia 23.11088706524291
lfoot -9.096491703211292 -2.3502118112488226
ltoes -8.239313853816766
203
root 0 0 0 -3.365706953404583 3.668374103096152 2.676015588919027
lowerback 11.690818520763042 -0.9376500934256915 -3.7042715310914147
upperback 1.2474312183638592 -1.5095896363706378 1.054332582023062
thorax -5.1806195293660835 -0.6483631780702033 3.325961743276254
lowerneck -17.677947207960006 -2.8755190920014737 -2.5010904585642084
upperneck 17.62004107959032 -3.1405165704803837 -0.34021582836507314
head 8.295851125807763 -1.6900897430292474 -0.06629994022893793
rclavicle 3.0878811938388644E-15 1.3345954004586937E-15
rhumerus -50.34797212525062 -18.814237249659513 -72.76538939078003
rradius 23.78788697398067
rwrist -1.3850810349845162
rhand -21.65908940380901 27.944326701799277
rfingers 7.125020000000055
rthumb 4.710897058163241 -2.319221077202016
lclavicle -1.9338074532651851E-16 -8.103991547624548E-15
lhumerus -35.37946757638194 -1.4592745607303206 84.08246190147179
lradius 28.92210676667997
lwrist 8.655323561876457
lhand -31.71788690750313 24.331547251096527
lfingers 7.125020000000041
lthumb -4.915922430407683 55.033265704715106
rfemur -28.952341380150088 28.42217136487315 41.56387602434707
rtibia 23.59932266909739
rfoot -8.265914970740619 -13.591376837930497
rtoes -3.8426036359822717
lfemur 2.7267473395205215 -5.3585954648835195 -23.257625457284682
ltibia 24.45091776483933
lfoot -8.514821151296424 -2.976476559319167
ltoes -8.707646563830915
204
root 0 0 0 -3.4015076197741436 3.9270796864504085 2.6736435866190664
lowerback 11.686453172909438 -0.9629646096755551 -3.740554043134189
upperback 1.2503380990769255 -1.5435274673407193 1.0621381219833008
thorax -5.169971730976236 -0.6652782535709347 3.359564975893952
lowerneck -17.69925498815952 -2.8718695306352986 -2.5114620291676713
upperneck 17.61473796366686 -3.130052797587196 -0.34187305443876337
head 8.30240292161014 -1.6852886364168587 -0.06726084106203789
rclavicle 3.052323223175354E-15 1.3952786035904138E-15
rhumerus -50.461705122597714 -18.893859546929278 -72.92387692326405
rradius 23.671297123503976
rwrist -1.4588806914707497
rhand -21.575279784030798 27.857043339781697
rfingers 7.125020000000055
rthumb 4.790765371394773 -2.3993452865404628
lclavicle -9.321070693720686E-17 -8.032049515681077E-15
lhumerus -35.08578847699233 -1.5643665106910731 84.12090930041313
lradius 28.981233628348207
lwrist 8.872577587917078
lhand -31.63311056655194 24.456490451252687
lfingers 7.125020000000041
lthumb -4.836095000719897 55.14562632743471
rfemur -29.044261968286932 28.623444232992 41.71232133946609
rtibia 23.52435712747933
rfoot -8.184312084480847 -13.616889945300864
rtoes -3.7201892061571407
lfemur 2.7683047492737884 -5.086055641488235 -23.191159518277264
ltibia 25.887086996895565
lfoot -7.8834171523538625 -3.5950291182067353
ltoes -9.135648028489404
205
root 0 0 0 -3.4201179802948793 3.981414675710017 2.6600293803081794
lowerback 11.688712148796544 -0.9683331358310574 -3.7399753248496834
upperback 1.2525366507417885 -1.5497012540668649 1.0684564274366382
thorax -5.1684483763149895 -0.668534503853256 3.367437183305077
lowerneck -17.706161979528545 -2.870717948588984 -2.5107781924524453
upperneck 17.61500830679585 -3.1272263216556895 -0.3444271036586972
head 8.305040039330713 -1.6838692693054862 -0.06909821490859924
rclavicle 3.029264958585423E-15 1.4446556496543057E-15
rhumerus -50.527634917706614 -18.938759713686306 -73.05885246598194
rradius 23.599426171214688
rwrist -1.527664422143868
rhand -21.519840278746376 27.79875587227962
rfingers 7.125020000000054
rthumb 4.843763796348313 -2.4527787692579146
lclavicle -3.286421574798795E-17 -7.965501900498461E-15
lhumerus -34.93759832222776 -1.6218336117262258 84.1692899282308
lradius 29.017382673043073
lwrist 9.024226041088191
lhand -31.564245076944978 24.537654124124906
lfingers 7.12502000000004
lthumb -4.771230392881154 55.2152642836052
rfemur -29.051228388118005 28.679158054526937 41.76707856221178
rtibia 23.498339327346393
rfoot -8.153575059732143 -13.598256660530879
rtoes -3.630418763422089
lfemur 2.5144722999210742 -4.803599894007805 -23.066159253172295
ltibia 27.386969396240293
lfoot -7.2254973822538275 -4.193910698916703
ltoes -9.52854648154448
